<?xml version="1.0" encoding="utf-8"?>
<!-- Uploaded to: SVG Repo, www.svgrepo.com, Generator: SVG Repo Mixer Tools -->
<svg width="800px" height="800px" viewBox="0 0 1024 1024" class="icon"  version="1.1" xmlns="http://www.w3.org/2000/svg"><path d="M975.3 374l-642 35V201.4c0-37.6 30.5-68.1 68.1-68.1l505.8-35c37.6 0 68.1 30.5 68.1 68.1V374z" fill="#FAFCFB" /><path d="M333.3 422c-3.3 0-6.5-1.3-8.9-3.6-2.6-2.5-4.1-5.9-4.1-9.4V201.4c0-44.6 36.1-80.9 80.7-81.1l505.3-35h0.9c44.7 0 81.1 36.4 81.1 81.1V374c0 6.9-5.4 12.6-12.3 13l-642 35h-0.7z m574.3-310.8l-505.3 35h-0.9c-30.4 0-55.1 24.7-55.1 55.1v193.9l616-33.6V166.4c0-30.3-24.5-54.9-54.7-55.2z" fill="#141414" /><path d="M333.3 790.2V409" fill="#FAFCFB" /><path d="M333.3 803.2c-7.2 0-13-5.8-13-13V409c0-7.2 5.8-13 13-13s13 5.8 13 13v381.2c0 7.2-5.8 13-13 13z" fill="#141414" /><path d="M975.3 755.2V374" fill="#FAFCFB" /><path d="M975.3 768.2c-7.2 0-13-5.8-13-13V374c0-7.2 5.8-13 13-13s13 5.8 13 13v381.2c0 7.2-5.8 13-13 13z" fill="#141414" /><path d="M188 782.9m-145.3 0a145.3 145.3 0 1 0 290.6 0 145.3 145.3 0 1 0-290.6 0Z" fill="#9DC6AF" /><path d="M188 941.2c-87.3 0-158.3-71-158.3-158.3 0-87.3 71-158.3 158.3-158.3s158.3 71 158.3 158.3c0 87.3-71 158.3-158.3 158.3z m0-290.7c-73 0-132.3 59.4-132.3 132.3S115 915.2 188 915.2s132.3-59.4 132.3-132.3S261 650.5 188 650.5z" fill="#191919" /><path d="M153.2 724.5m-34.7 0a34.7 34.7 0 1 0 69.4 0 34.7 34.7 0 1 0-69.4 0Z" fill="#E8F9EF" /><path d="M834.7 747.9m-145.3 0a145.3 145.3 0 1 0 290.6 0 145.3 145.3 0 1 0-290.6 0Z" fill="#9DC6AF" /><path d="M834.7 906.2c-87.3 0-158.3-71-158.3-158.3 0-87.3 71-158.3 158.3-158.3 87.3 0 158.3 71 158.3 158.3 0 87.3-71 158.3-158.3 158.3z m0-290.7c-73 0-132.3 59.4-132.3 132.3s59.4 132.3 132.3 132.3S967 820.8 967 747.9s-59.3-132.4-132.3-132.4z" fill="#191919" /><path d="M800 689.5m-34.7 0a34.7 34.7 0 1 0 69.4 0 34.7 34.7 0 1 0-69.4 0Z" fill="#E8F9EF" /></svg>